<svg width="20" height="11" viewBox="0 0 20 11" fill="none" xmlns="http://www.w3.org/2000/svg">
<path d="M10.8861 5.36652C10.8861 8.23643 8.5294 10.5629 5.62245 10.5629C2.7155 10.5629 0.358643 8.23643 0.358643 5.36652C0.358643 2.49661 2.71532 0.169922 5.62245 0.169922C8.52958 0.169922 10.8861 2.49661 10.8861 5.36652Z" fill="white"/>
<path d="M16.6604 5.36611C16.6604 8.06769 15.4821 10.2576 14.0285 10.2576C12.5749 10.2576 11.3966 8.06751 11.3966 5.36611C11.3966 2.6647 12.5749 0.474609 14.0285 0.474609C15.4821 0.474434 16.6604 2.66453 16.6604 5.36611Z" fill="white"/>
<path d="M19.0223 5.36701C19.0223 7.78751 18.608 9.74965 18.0967 9.74965C17.5854 9.74965 17.171 7.78751 17.171 5.36701C17.171 2.94651 17.5854 0.984375 18.0967 0.984375C18.608 0.984375 19.0223 2.94651 19.0223 5.36701Z" fill="white"/>
</svg>
