<svg width="13" height="11" viewBox="0 0 13 11" fill="none" xmlns="http://www.w3.org/2000/svg">
<path fill-rule="evenodd" clip-rule="evenodd" d="M11.4287 0.198863C11.5812 0.138073 11.7476 0.117517 11.911 0.139302C12.0744 0.161087 12.2289 0.224429 12.3586 0.322839C12.4883 0.421249 12.5886 0.551189 12.6492 0.699347C12.7098 0.847506 12.7285 1.00856 12.7035 1.166C12.342 3.43603 11.6793 7.5957 11.3275 9.80373C11.3032 9.95652 11.2384 10.1007 11.1395 10.2222C11.0406 10.3438 10.9109 10.4386 10.763 10.4976C10.615 10.5566 10.4538 10.5778 10.2949 10.559C10.136 10.5402 9.98477 10.4822 9.85589 10.3905C8.61147 9.50511 6.74572 8.17766 5.79846 7.50345C5.72536 7.45143 5.66498 7.38454 5.62158 7.30751C5.57818 7.23049 5.55282 7.1452 5.5473 7.05767C5.54177 6.97014 5.55621 6.88251 5.5896 6.80097C5.62299 6.71942 5.67451 6.64594 5.74052 6.58573C6.60851 5.79411 8.33728 4.21746 9.52672 3.13262C9.55474 3.1069 9.5718 3.07201 9.57456 3.03479C9.57733 2.99756 9.5656 2.96067 9.54168 2.93136C9.51775 2.90205 9.48335 2.88242 9.44522 2.87632C9.40709 2.87022 9.36797 2.8781 9.33554 2.8984C7.81044 3.85894 5.47475 5.32986 4.33 6.0508C4.11547 6.18591 3.87436 6.27681 3.62177 6.31778C3.36918 6.35875 3.11055 6.34893 2.86207 6.28891C2.23173 6.13676 1.32253 5.91721 0.51341 5.72193C0.386732 5.69136 0.273272 5.62298 0.18919 5.52651C0.105109 5.43004 0.0546933 5.31041 0.0451252 5.18466C0.0355571 5.05891 0.0673244 4.93345 0.135902 4.82615C0.204479 4.71885 0.30637 4.63518 0.427061 4.58707C3.2437 3.46358 8.75582 1.26514 11.4287 0.198863Z" fill="white"/>
</svg>
