<svg width="14" height="10" viewBox="0 0 14 10" fill="none" xmlns="http://www.w3.org/2000/svg">
<path d="M13.2462 1.73957C13.0959 1.18078 12.6553 0.740287 12.0966 0.589822C11.0759 0.310547 6.99307 0.310547 6.99307 0.310547C6.99307 0.310547 2.91038 0.310547 1.88969 0.579234C1.34172 0.72954 0.89041 1.18085 0.740104 1.73957C0.471497 2.76018 0.471497 4.8768 0.471497 4.8768C0.471497 4.8768 0.471497 7.00409 0.740104 8.01403C0.890569 8.57274 1.33098 9.01323 1.88977 9.1637C2.92113 9.44305 6.99323 9.44305 6.99323 9.44305C6.99323 9.44305 11.0759 9.44305 12.0966 9.17436C12.6554 9.02398 13.0959 8.58349 13.2464 8.02478C13.5149 7.00409 13.5149 4.88755 13.5149 4.88755C13.5149 4.88755 13.5256 2.76018 13.2462 1.73957ZM5.69318 6.83221V2.92139L9.08828 4.8768L5.69318 6.83221Z" fill="white"/>
</svg>
